<?xml version="1.0" standalone="no"?>
<!DOCTYPE svg PUBLIC "-//W3C//DTD SVG 20010904//EN"
 "http://www.w3.org/TR/2001/REC-SVG-20010904/DTD/svg10.dtd">
<svg version="1.0" xmlns="http://www.w3.org/2000/svg"
 width="128.000000pt" height="128.000000pt" viewBox="0 0 128.000000 128.000000"
 preserveAspectRatio="xMidYMid meet">
<metadata>
Created by potrace 1.16, written by Peter Selinger 2001-2019
</metadata>
<g transform="translate(0.000000,128.000000) scale(0.100000,-0.100000)"
fill="#191970" stroke="none">
<path d="M567 1050 c-67 -12 -163 -60 -219 -109 -32 -28 -60 -68 -85 -119 -34
-67 -38 -86 -41 -163 -3 -64 1 -102 14 -141 65 -200 268 -324 471 -288 211 36
353 201 353 410 0 88 -19 152 -65 226 -59 93 -173 165 -292 184 -65 11 -68 11
-136 0z m-81 -348 c30 14 71 -11 79 -47 3 -14 7 -36 10 -50 8 -36 40 -50 71
-30 20 13 24 23 24 70 0 29 5 57 10 60 6 4 10 -15 10 -49 0 -43 5 -61 20 -76
11 -11 25 -20 30 -20 6 0 19 9 30 20 15 15 20 33 20 75 0 30 5 55 10 55 6 0
10 -26 10 -57 0 -44 5 -62 22 -80 17 -18 18 -23 6 -23 -9 0 -21 6 -27 14 -11
13 -15 12 -32 -5 -23 -23 -47 -24 -76 -4 -19 13 -25 13 -52 -3 -28 -15 -33
-16 -58 -2 -20 11 -31 27 -36 55 -13 57 -21 70 -49 73 -34 4 -47 -15 -57 -84
l-9 -59 -1 90 c-1 66 2 86 10 78 8 -8 18 -8 35 -1z"/>
</g>
</svg>
